<svg width="240pt" height="37pt" viewBox="0 0 240 37" xmlns="http://www.w3.org/2000/svg"><g id="fontsvg1705222731100" stroke-linecap="round" fill-rule="evenodd" fill="#000000"><path d="M 53.15 10.155 L 59 5.655 A 16.78 16.78 0 0 0 55.992 2.759 C 54.251 1.475 52.428 0.734 50.555 0.35 A 18.172 18.172 0 0 0 46.9 0.005 C 40.646 0.005 34.577 3.384 34.127 9.831 A 11.115 11.115 0 0 0 34.1 10.605 C 34.1 17.049 38.838 20.622 44.227 21.716 A 17.971 17.971 0 0 0 45 21.855 A 18.323 18.323 0 0 1 45.829 21.989 C 48.441 22.472 51.052 23.558 51.052 25.316 A 1.796 1.796 0 0 1 51.05 25.405 C 50.807 29.098 43.433 29.013 39.76 25.059 A 8.045 8.045 0 0 1 39.45 24.705 L 33.8 30.005 A 17.778 17.778 0 0 0 37.788 33.793 C 39.64 35.061 41.638 35.869 43.637 36.214 A 13.031 13.031 0 0 0 45.85 36.405 C 50.16 36.405 54.778 34.757 57.488 31.648 A 9.363 9.363 0 0 0 59.85 25.805 C 60.156 19.14 56.531 16.29 51.985 14.804 A 33.254 33.254 0 0 0 47.65 13.755 A 14.659 14.659 0 0 1 45.77 13.226 C 44.535 12.776 43.637 12.183 43.215 11.397 A 2.245 2.245 0 0 1 42.95 10.455 A 3.119 3.119 0 0 1 43.489 8.752 C 44.863 6.783 48.591 6.786 51.579 8.814 A 9.329 9.329 0 0 1 53.15 10.155 Z M 162.2 9.005 L 177.8 9.005 L 177.8 0.505 L 153.15 0.505 L 153.15 35.905 L 162.2 35.905 L 162.2 23.705 L 175.85 23.705 L 175.85 15.355 L 162.2 15.355 L 162.2 9.005 Z M 20.5 0.505 L 12.35 0.505 L 0 35.905 L 9.6 35.905 L 11.8 28.805 L 21.25 28.805 L 23.55 35.905 L 33.15 35.905 L 20.5 0.505 Z M 89.45 8.955 L 89.45 0.455 L 61.6 0.455 L 61.6 8.955 L 71 8.955 L 71 35.905 L 80.05 35.905 L 80.05 8.955 L 89.45 8.955 Z M 126.2 35.905 L 149.6 35.905 L 149.6 27.055 L 135.2 27.055 L 135.2 0.505 L 126.2 0.505 L 126.2 35.905 Z M 121.45 24.255 L 121.45 12.155 A 11.05 11.05 0 0 0 119.742 6.079 C 117.143 2.03 111.947 0.005 106.75 0.005 A 16.8 16.8 0 0 0 96.058 3.503 C 93.93 5.284 92.464 7.75 92.159 10.91 A 12.969 12.969 0 0 0 92.1 12.155 L 92.1 24.255 A 11.05 11.05 0 0 0 93.808 30.332 C 96.407 34.381 101.603 36.405 106.8 36.405 A 16.773 16.773 0 0 0 117.507 32.875 C 119.637 31.082 121.101 28.607 121.395 25.45 A 12.851 12.851 0 0 0 121.45 24.255 Z M 210.45 24.255 L 210.45 12.155 A 11.05 11.05 0 0 0 208.742 6.079 C 206.143 2.03 200.947 0.005 195.75 0.005 A 16.8 16.8 0 0 0 185.058 3.503 C 182.93 5.284 181.464 7.75 181.159 10.91 A 12.969 12.969 0 0 0 181.1 12.155 L 181.1 24.255 A 11.05 11.05 0 0 0 182.808 30.332 C 185.407 34.381 190.603 36.405 195.8 36.405 A 16.773 16.773 0 0 0 206.507 32.875 C 208.637 31.082 210.101 28.607 210.395 25.45 A 12.851 12.851 0 0 0 210.45 24.255 Z M 222.5 15.605 L 213.75 15.605 L 213.75 24.105 L 222.5 24.105 L 222.5 32.655 L 230.95 32.655 L 230.95 24.105 L 239.35 24.105 L 239.35 15.605 L 230.95 15.605 L 230.95 7.105 L 222.5 7.105 L 222.5 15.605 Z M 112.5 12.155 L 112.5 24.255 A 3.441 3.441 0 0 1 110.356 27.336 C 109.37 27.832 108.148 28.089 106.919 28.105 A 9.371 9.371 0 0 1 106.8 28.105 A 9.747 9.747 0 0 1 106.655 28.104 C 103.853 28.063 101.05 26.811 101.05 24.255 L 101.05 12.155 A 3.665 3.665 0 0 1 103.371 8.861 A 7.633 7.633 0 0 1 106.65 8.155 A 10.083 10.083 0 0 1 106.795 8.156 C 108.065 8.175 109.336 8.433 110.354 8.954 A 3.527 3.527 0 0 1 112.5 12.155 Z M 201.5 12.155 L 201.5 24.255 A 3.441 3.441 0 0 1 199.356 27.336 C 198.37 27.832 197.148 28.089 195.919 28.105 A 9.371 9.371 0 0 1 195.8 28.105 A 9.747 9.747 0 0 1 195.655 28.104 C 192.853 28.063 190.05 26.811 190.05 24.255 L 190.05 12.155 A 3.665 3.665 0 0 1 192.371 8.861 A 7.633 7.633 0 0 1 195.65 8.155 A 10.083 10.083 0 0 1 195.795 8.156 C 197.065 8.175 198.336 8.433 199.354 8.954 A 3.527 3.527 0 0 1 201.5 12.155 Z M 13.8 20.855 L 16.4 10.505 L 16.65 10.505 L 19.1 20.855 L 13.8 20.855 Z" vector-effect="non-scaling-stroke"/></g></svg>